<?xml version="1.0" standalone="no"?>
<!DOCTYPE svg PUBLIC "-//W3C//DTD SVG 20010904//EN"
 "http://www.w3.org/TR/2001/REC-SVG-20010904/DTD/svg10.dtd">
<svg version="1.0" xmlns="http://www.w3.org/2000/svg"
 width="468pt" height="82pt" viewBox="0 0 468 82"
 preserveAspectRatio="xMidYMid meet">
<metadata>
Created by potrace 1.8, written by Peter Selinger 2001-2007
</metadata>
<g transform="translate(0,82) scale(0.004006,-0.004006)"
fill="#ffffff" stroke="none">
<path d="M70 11830 l0 -8340 2915 0 2915 0 0 2700 0 2700 1796 -2 1796 -3
1273 -2695 1272 -2695 2892 -3 2891 -2 0 259 0 259 -1645 3178 -1645 3178 343
346 c349 351 502 512 708 745 1065 1207 1668 2431 1839 3740 59 449 67 983 19
1380 -103 864 -439 1572 -1005 2114 -288 276 -608 494 -1019 696 -789 387
-1779 625 -3036 730 -624 52 -221 49 -6496 52 l-5813 3 0 -8340z m10150 4407
c556 -72 864 -188 1099 -412 238 -228 341 -523 341 -985 0 -335 -46 -631 -151
-965 -165 -524 -449 -1011 -840 -1442 l-120 -133 -2325 0 -2324 0 0 1980 0
1981 2093 -4 c1924 -2 2103 -4 2227 -20z"/>
<path d="M56790 11830 l0 -8340 2118 0 2117 0 2070 2220 c1138 1221 2072 2216
2076 2212 4 -4 892 -1763 1975 -3909 l1969 -3903 2693 0 2692 0 0 256 0 257
-2844 5576 c-1565 3067 -2846 5581 -2848 5586 -2 6 878 959 1955 2118 l1957
2107 0 255 0 255 -2392 0 -2393 0 -2585 -3060 -2585 -3060 -72 0 -73 0 0 4885
0 4885 -2915 0 -2915 0 0 -8340z"/>
<path d="M74890 13473 c0 -4383 4 -6755 10 -6863 46 -751 218 -1335 538 -1830
197 -304 523 -631 847 -847 813 -542 1997 -830 3544 -861 1144 -23 2304 42
3191 179 763 118 1341 282 2063 584 l67 29 0 1393 0 1393 -1462 0 c-863 0
-1529 4 -1623 10 -427 27 -704 96 -904 225 -277 178 -404 452 -431 930 -6 98
-10 1195 -10 2598 l0 2427 2215 0 c1218 0 2215 2 2215 4 0 9 490 3611 495
3644 l6 32 -2466 0 -2465 0 0 1825 0 1825 -2915 0 -2915 0 0 -6697z"/>
<path d="M27330 16964 c-19 -2 -147 -8 -285 -14 -879 -39 -1829 -176 -2598
-376 -2103 -545 -3623 -1641 -4492 -3239 -452 -833 -707 -1770 -776 -2855 -15
-245 -6 -1082 15 -1355 97 -1251 341 -2162 791 -2960 321 -569 761 -1071 1295
-1477 1169 -889 2884 -1408 5180 -1568 704 -49 1809 -66 2615 -40 2399 77
4380 398 6165 998 126 42 176 63 178 76 3 14 -438 3185 -444 3194 -1 2 -150
-15 -330 -37 -1865 -228 -3564 -331 -5449 -332 -777 0 -1163 9 -1575 37 -1494
100 -2079 434 -2305 1318 -33 129 -68 322 -81 444 l-7 62 4725 0 4725 0 51
173 c187 634 324 1343 391 2022 41 411 46 515 46 1000 0 394 -3 510 -18 645
-70 638 -200 1113 -434 1587 -549 1113 -1598 1874 -3173 2302 -806 219 -1745
347 -2865 391 -217 9 -1247 12 -1345 4z m830 -3634 c510 -29 839 -86 1100
-192 391 -158 609 -417 689 -821 30 -149 41 -302 41 -564 l0 -233 -2370 0
-2370 0 5 23 c2 12 12 64 20 116 64 383 196 732 363 961 324 445 849 662 1717
709 218 12 603 12 805 1z"/>
<path d="M44445 16960 c-1724 -48 -3382 -186 -4935 -411 -450 -65 -1205 -191
-1217 -203 -3 -3 517 -3676 521 -3682 1 -1 71 9 156 22 915 138 2249 268 3360
328 677 37 846 41 1785 41 962 0 1134 -5 1490 -41 699 -71 979 -230 1080 -614
41 -156 46 -230 52 -772 l5 -528 -1808 0 c-2207 0 -2535 -8 -3274 -81 -2310
-227 -3608 -985 -4055 -2369 -131 -405 -185 -784 -186 -1295 0 -323 20 -553
71 -830 199 -1075 817 -1999 1745 -2608 802 -526 1786 -814 2891 -845 1006
-29 2014 85 2740 309 828 255 1435 646 1893 1219 73 92 230 318 283 410 l26
45 30 -95 c116 -369 323 -710 591 -977 576 -572 1471 -878 2666 -911 277 -8
837 1 1070 18 1185 83 2024 299 2763 712 l112 62 0 1393 0 1393 -549 0 c-666
0 -800 11 -934 75 -153 73 -219 214 -237 510 -6 98 -10 1290 -10 3070 0 3068
0 3035 -44 3350 -120 846 -481 1532 -1066 2025 -626 527 -1510 879 -2713 1081
-554 92 -1127 149 -1932 190 -267 14 -1967 20 -2370 9z m2295 -9393 l0 -843
-97 -41 c-433 -182 -871 -261 -1556 -279 -538 -15 -932 53 -1251 215 -246 125
-422 292 -526 499 -51 101 -77 180 -97 300 -14 84 -15 115 -5 227 43 465 344
693 1002 758 19 2 596 5 1283 5 l1247 2 0 -843z"/>
<path d="M95065 16954 c-2372 -117 -4250 -709 -5630 -1773 -1357 -1047 -2184
-2557 -2375 -4335 -33 -309 -42 -498 -41 -866 0 -365 10 -603 36 -902 203
-2311 1195 -3932 3005 -4910 1044 -564 2373 -913 3975 -1043 974 -79 2118 -75
3020 9 2662 250 4670 1174 5945 2736 804 983 1289 2263 1379 3635 35 527 16
1170 -50 1735 -337 2884 -1965 4651 -4944 5368 -779 188 -1625 299 -2639 347
-393 19 -1297 18 -1681 -1z m1190 -4268 c1243 -130 1847 -614 2049 -1641 71
-362 98 -857 77 -1415 -32 -860 -145 -1326 -403 -1667 -342 -451 -954 -632
-2148 -633 -430 -1 -650 14 -970 67 -621 102 -1079 338 -1365 703 -255 327
-392 743 -450 1372 -27 283 -21 1005 10 1348 65 712 227 1134 546 1421 295
265 728 402 1439 454 243 19 1010 13 1215 -9z"/>
<path d="M114225 15750 c-1917 -1168 -2000 -1218 -2011 -1197 -6 12 -175 460
-375 995 l-364 972 -2292 0 -2293 0 0 -6515 0 -6515 2915 0 2915 0 0 3699 0
3699 793 369 c435 203 1342 626 2014 939 l1223 569 0 2103 0 2102 -262 -1
-263 -1 -2000 -1218z"/>
</g>
</svg>
